# xmcd
#
# Track frame offsets:
# 150
# 16599
# 27626
# 40870
# 57227
# 71862
# 89942
# 102561
# 115328
# 126039
# 138371
# 151485
# 165239
# 180563
#
# Disc length: 2576 seconds
#
#
# Revision: 0
# Processed by: cddbd v1.5.1PL2 Copyright (c) Steve Scherf et al.
# Submitted via: FreeRIP 2.941 
#
DISCID=c00a0e0e
DTITLE=Janie Fricke - Golden Legends
DYEAR=2006
DGENRE=Country
TTITLE0=Always Have, Always Will
TTITLE1=Don't Worry About Me Baby
TTITLE2=He's A Heartache
TTITLE3=It Ain't Easy Being Easy
TTITLE4=Let's Stop Talkin' About It
TTITLE5=Tell Me a Lie
TTITLE6=Your Heart's Not In It
TTITLE7=Do Me With Love
TTITLE8=Down To My Last Broken Heart
TTITLE9=Easy To Please
TTITLE10=She's Single Again
TTITLE11=Somebody Else's Fire
TTITLE12=The First Word in Memory
TTITLE13=If the Fall Don't Get You
EXTD=
EXTT0=
EXTT1=
EXTT2=
EXTT3=
EXTT4=
EXTT5=
EXTT6=
EXTT7=
EXTT8=
EXTT9=
EXTT10=
EXTT11=
EXTT12=
EXTT13=
PLAYORDER=
